<svg xmlns="http://www.w3.org/2000/svg" version="1.0" width="512.000000pt" height="512.000000pt" viewBox="0 0 512.000000 512.000000" preserveAspectRatio="xMidYMid meet">

<g transform="translate(0.000000,512.000000) scale(0.100000,-0.100000)" fill="#d3c6b9" stroke="none">
<path d="M3930 5105 c-102 -25 -223 -90 -320 -173 l-34 -30 -37 29 c-21 16 -62 41 -92 55 -247 112 -503 -13 -666 -326 -172 -330 -197 -845 -61 -1219 59 -160 126 -269 231 -371 l66 -65 -33 -45 c-129 -176 -194 -493 -212 -1029 l-7 -204 -54 72 c-83 113 -232 225 -343 261 -21 6 -38 14 -38 16 0 3 11 27 25 54 126 249 143 661 41 1013 -110 375 -315 639 -565 724 -154 52 -307 15 -432 -104 l-58 -55 -63 36 c-306 171 -601 116 -728 -134 -44 -87 -61 -156 -67 -276 -5 -99 3 -183 30 -327 1 -5 -30 -19 -70 -31 -257 -83 -402 -300 -364 -546 47 -303 330 -614 733 -805 121 -57 283 -111 411 -136 146 -29 361 -29 478 -1 198 48 322 136 394 279 14 28 25 59 25 68 0 26 58 75 89 75 42 -1 154 -44 207 -81 294 -201 476 -762 500 -1539 7 -220 13 -254 54 -275 34 -18 51 -19 83 -4 45 21 51 43 49 204 -5 369 -55 754 -134 1035 l-24 85 7 380 c9 477 28 690 79 897 21 86 73 206 107 247 l19 23 58 -60 c188 -197 518 -223 903 -70 203 81 393 208 569 383 373 371 467 793 234 1048 -77 84 -200 141 -351 161 l-46 7 -6 127 c-8 183 -31 277 -99 404 -35 65 -113 148 -173 183 -86 51 -207 66 -315 40z m218 -197 c115 -58 183 -222 186 -446 1 -127 1 -126 -73 -137 -54 -8 -249 -73 -309 -104 -22 -11 -45 -21 -50 -21 -6 0 -13 25 -17 55 -16 134 -80 321 -148 440 l-40 69 48 42 c27 24 76 58 109 75 116 62 206 70 294 27z m-773 -90 c149 -68 281 -303 329 -587 9 -52 16 -104 16 -115 0 -15 -25 -39 -82 -81 -164 -120 -343 -319 -433 -480 -48 -85 -92 -209 -107 -297 l-12 -72 -47 54 c-92 102 -170 288 -204 485 -23 130 -23 376 -1 501 60 339 213 580 389 613 53 10 101 3 152 -21z m1183 -658 c196 -26 304 -135 303 -308 -1 -193 -101 -386 -310 -593 -269 -267 -594 -419 -897 -419 -318 0 -455 198 -346 498 127 345 519 681 924 792 133 36 218 44 326 30z m-2735 -484 c173 -84 335 -339 412 -646 37 -148 48 -264 42 -417 -6 -152 -24 -250 -63 -351 -26 -67 -74 -152 -85 -152 -3 0 -13 26 -23 58 -75 239 -326 495 -648 662 l-117 61 -3 72 c-15 371 100 665 287 735 46 18 139 7 198 -22z m-733 -45 c30 -11 79 -35 107 -51 l53 -30 -24 -63 c-43 -116 -76 -312 -76 -461 0 -66 -1 -68 -22 -62 -77 21 -238 48 -327 54 l-105 7 -12 55 c-22 90 -29 250 -15 322 25 124 95 223 176 248 50 15 184 5 245 -19z m-119 -822 c425 -84 841 -381 960 -687 33 -85 33 -210 -1 -275 -67 -132 -219 -197 -458 -197 -196 0 -378 44 -582 141 -290 138 -525 362 -605 574 -28 73 -34 193 -13 242 58 133 189 208 388 222 119 9 189 4 311 -20z" fill="#d3c6b9"/>
<path d="M4194 2484 c-537 -90 -958 -527 -1049 -1089 -8 -49 -15 -121 -15 -159 0 -62 5 -78 45 -160 246 -494 837 -733 1383 -560 146 47 164 78 109 197 -77 167 -235 353 -383 450 -91 60 -213 120 -286 141 -32 9 -58 20 -58 24 0 4 22 23 48 42 113 84 233 220 314 355 115 191 188 441 188 642 0 76 -2 86 -25 108 -22 23 -32 25 -107 24 -46 -1 -119 -7 -164 -15z m104 -240 c-54 -405 -354 -773 -732 -899 -71 -24 -208 -55 -240 -55 -14 0 -14 5 5 115 25 149 114 352 208 477 70 93 216 226 310 282 125 75 319 142 422 145 l36 1 -9 -66z m-440 -1090 c174 -40 318 -120 448 -249 50 -49 110 -119 132 -155 l41 -65 -41 -12 c-76 -23 -211 -36 -305 -29 -241 17 -461 114 -622 276 -67 67 -149 176 -139 185 3 3 38 12 79 20 41 8 101 24 134 34 68 23 160 21 273 -5z" fill="#d3c6b9"/>
</g>
</svg>